PathFileType	4	(X/Y/Z)	/Users/itak/Documents/Research/Walk-IL/dataset/trc/00534_00009.trc
DataRate	CameraRate	NumFrames	NumMarkers	Units	OrigDataRate	OrigDataStartFrame	OrigNumFrames
100.000000	100.000000	4	54	mm	100.000000	156	624
Frame#	Time	RPSI			LPSI			L3			STRN			T10			C7			CLAV			RBAK			LBAK			LSHO			LUPA			LAEL			LAOL			LWTS			LWPS			LFRA			LHPS			LHTS			RSHO			RUPA			RAEL			RAOL			RWTS			RWPS			RFRA			RIFD			RHTS			RHPS			RBHD			LFHD			RFHD			LBHD			LHIP			RASI			LASI			LKNE			LTHI			LANK			LTIP			LTOE			LMT1			LMT5			LHEE			RKNE			RTHI			RANK			RTIP			RTOE			RMT1			RMT5			RHEE			RHIP			LIFD			*53			
		X1	Y1	Z1	X2	Y2	Z2	X3	Y3	Z3	X4	Y4	Z4	X5	Y5	Z5	X6	Y6	Z6	X7	Y7	Z7	X8	Y8	Z8	X9	Y9	Z9	X10	Y10	Z10	X11	Y11	Z11	X12	Y12	Z12	X13	Y13	Z13	X14	Y14	Z14	X15	Y15	Z15	X16	Y16	Z16	X17	Y17	Z17	X18	Y18	Z18	X19	Y19	Z19	X20	Y20	Z20	X21	Y21	Z21	X22	Y22	Z22	X23	Y23	Z23	X24	Y24	Z24	X25	Y25	Z25	X26	Y26	Z26	X27	Y27	Z27	X28	Y28	Z28	X29	Y29	Z29	X30	Y30	Z30	X31	Y31	Z31	X32	Y32	Z32	X33	Y33	Z33	X34	Y34	Z34	X35	Y35	Z35	X36	Y36	Z36	X37	Y37	Z37	X38	Y38	Z38	X39	Y39	Z39	X40	Y40	Z40	X41	Y41	Z41	X42	Y42	Z42	X43	Y43	Z43	X44	Y44	Z44	X45	Y45	Z45	X46	Y46	Z46	X47	Y47	Z47	X48	Y48	Z48	X49	Y49	Z49	X50	Y50	Z50	X51	Y51	Z51	X52	Y52	Z52	X53	Y53	Z53	X54	Y54	Z54	

157	1.56	-1168.704223632812	1018.835388183594	-331.9524536132812	-1124.076171875	1018.829406738281	-457.9960021972656	-1138.22705078125	1111.530639648438	-398.7324523925781	-909.9815673828125	1291.74609375	-339.1785888671875	-1145.350219726562	1236.544677734375	-404.6416320800781	-1093.256958007812	1508.059814453125	-383.3736877441406	-925.0723876953125	1403.611572265625	-345.6763000488281	-1190.288940429688	1388.319946289062	-318.5647583007812	-1102.4443359375	1454.613525390625	-480.6729736328125	-985.45458984375	1476.683715820312	-531.7001342773438	-974.3775024414062	1349.76171875	-610.0994873046875	-949.2298583984375	1125.899047851562	-619.4028930664062	-1047.926147460938	1119.710571289062	-600.7565307617188	-883.3405151367188	883.7938842773438	-535.5479736328125	-901.2523803710938	859.4732666015625	-617.7440795898438	-926.8319091796875	1039.177001953125	-615.8998413085938	-897.2469482421875	799.5061645507812	-606.022705078125	-864.3510131835938	805.0573120117188	-547.0809936523438	-1080.317993164062	1472.72998046875	-218.9141693115234	-1117.342651367188	1409.7666015625	-157.4247436523438	-1127.541625976562	1118.517456054688	-114.261474609375	-1173.18994140625	1100.834594726562	-154.3599548339844	-984.196044921875	900.6083984375	-116.8003845214844	-1044.516479492188	879.4920043945312	-63.7257080078125	-1118.962646484375	1063.06494140625	-104.2026443481445	-970.92919921875	725.5177001953125	-101.3631362915039	-958.7344970703125	809.2979125976562	-93.57473754882812	-1025.837280273438	806.667236328125	-58.02885437011719	-1048.291748046875	1680.399658203125	-313.4132995605469	-856.546142578125	1713.16259765625	-389.8219299316406	-922.2903442382812	1713.583129882812	-260.1813049316406	-967.3894653320312	1679.359741210938	-457.92138671875	-958.31298828125	927.5538940429688	-540.6312866210938	-988.4160766601562	974.3333740234375	-206.7537078857422	-906.7290649414062	956.8106079101562	-470.0337219238281	-984.612060546875	488.1914367675781	-463.5574035644531	-962.1969604492188	652.361572265625	-504.7935180664062	-1075.738647460938	25.77392387390137	-447.8528137207031	-1050.9111328125	244.4324493408203	-470.6268005371094	-887.5	37.84659194946289	-337.9144287109375	-966.3848876953125	42.32191467285156	-321.8961486816406	-954.6024169921875	31.23310852050781	-430.3796997070312	-1156.268310546875	31.77338981628418	-412.0518798828125	-1019.300537109375	501.1014404296875	-188.4005889892578	-1045.299438476562	792.0278930664062	-159.3717193603516	-1174.552001953125	50.05893707275391	-221.8580017089844	-1035.160888671875	353.6795349121094	-198.2742767333984	-954.0931396484375	40.77268981933594	-210.8323059082031	-1006.755493164062	39.91954040527344	-265.8569641113281	-1052.102294921875	42.97619247436523	-172.9481506347656	-1216.319091796875	43.52920150756836	-287.0981750488281	-1089.306640625	945.6210327148438	-177.0071105957031	-886.775146484375	711.5579833984375	-538.157470703125	nan	nan	nan	
158	1.57	-1168.499145507812	1018.529174804688	-332.5297546386719	-1123.574951171875	1018.592224121094	-458.4473876953125	-1137.796508789062	1111.736328125	-399.2651977539062	-909.1268920898438	1291.561279296875	-339.1835632324219	-1144.611938476562	1236.728637695312	-405.1463317871094	-1091.899536132812	1508.12744140625	-383.8009338378906	-923.94091796875	1403.45068359375	-345.7455444335938	-1189.256225585938	1388.637084960938	-319.0688171386719	-1100.96826171875	1454.668823242188	-481.1160888671875	-983.8175659179688	1476.510009765625	-531.8776245117188	-972.7062377929688	1349.618286132812	-610.2678833007812	-947.7928466796875	1125.763793945312	-619.708984375	-1046.582885742188	1119.673095703125	-601.2766723632812	-882.4124145507812	883.483642578125	-535.9265747070312	-900.1339111328125	859.2870483398438	-618.1860961914062	-925.5390625	1038.993774414062	-616.2428588867188	-896.245849609375	799.2640991210938	-606.545166015625	-863.5503540039062	804.70263671875	-547.4813842773438	-1079.266845703125	1472.877197265625	-219.2947082519531	-1116.45068359375	1410.018676757812	-157.8005981445312	-1126.81494140625	1118.826538085938	-114.332160949707	-1172.430541992188	1101.086059570312	-154.4242553710938	-983.330078125	901.0609130859375	-116.4276962280273	-1043.625366210938	879.9197998046875	-63.5169677734375	-1118.252807617188	1063.400512695312	-104.1436767578125	-969.83349609375	726.0144653320312	-100.880615234375	-957.8106689453125	809.7909545898438	-93.09682464599609	-1024.912353515625	807.1187133789062	-57.67969512939453	-1046.659057617188	1680.47705078125	-313.8860168457031	-854.7042846679688	1712.71630859375	-390.0368957519531	-920.689697265625	1713.412719726562	-260.4459838867188	-965.5200805664062	1679.088745117188	-458.2670288085938	-957.556884765625	927.3855590820312	-540.7036743164062	-988.3029174804688	974.637451171875	-207.0561370849609	-906.174560546875	956.8248901367188	-470.1761779785156	-984.302001953125	488.114501953125	-463.6112976074219	-961.6643676757812	652.2029418945312	-504.9076538085938	-1075.738525390625	25.77471160888672	-447.8532409667969	-1050.859497070312	244.4408264160156	-470.6358337402344	-887.5138549804688	37.84248733520508	-337.9106140136719	-966.4089965820312	42.32816696166992	-321.8533325195312	-954.6135864257812	31.23201179504395	-430.392822265625	-1156.272705078125	31.77426147460938	-412.0584411621094	-1014.0078125	501.8176574707031	-187.2892761230469	-1043.31298828125	792.47314453125	-159.3583221435547	-1173.7138671875	51.91422653198242	-221.7840576171875	-1030.895385742188	354.2047119140625	-197.1728210449219	-953.4448852539062	41.64066314697266	-210.4115905761719	-1005.957458496094	40.74098205566406	-265.5212707519531	-1051.536376953125	43.94762420654297	-172.6555938720703	-1215.309936523438	45.89608001708984	-287.1936950683594	-1088.95068359375	945.6557006835938	-177.3998107910156	-886.0108642578125	711.1915283203125	-538.5694580078125	nan	nan	nan	
159	1.58	-1168.25537109375	1018.218139648438	-333.0436401367188	-1123.06298828125	1018.345336914062	-458.85302734375	-1137.341674804688	1111.962524414062	-399.74951171875	-908.2489013671875	1291.398681640625	-339.1536560058594	-1143.849975585938	1236.9375	-405.60986328125	-1090.517700195312	1508.208984375	-384.1916809082031	-922.8076782226562	1403.291625976562	-345.7514038085938	-1188.203735351562	1388.970458984375	-319.5443725585938	-1099.4677734375	1454.7431640625	-481.5193786621094	-982.1526489257812	1476.346801757812	-532.0171508789062	-971.0072021484375	1349.479614257812	-610.38720703125	-946.3343505859375	1125.61962890625	-619.96923828125	-1045.224731445312	1119.647827148438	-601.7527465820312	-881.4633178710938	883.185791015625	-536.2730712890625	-898.994140625	859.1044311523438	-618.570556640625	-924.2151489257812	1038.8154296875	-616.5289916992188	-895.2242431640625	799.0276489257812	-607.0162963867188	-862.7622680664062	804.3231811523438	-547.807861328125	-1078.208251953125	1473.049072265625	-219.6387176513672	-1115.564086914062	1410.287475585938	-158.1468353271484	-1126.125244140625	1119.154296875	-114.3931198120117	-1171.700561523438	1101.349365234375	-154.5180053710938	-982.5167236328125	901.5242309570312	-116.0311965942383	-1042.80078125	880.3619995117188	-63.29624176025391	-1117.59423828125	1063.751953125	-104.0836181640625	-968.8229370117188	726.52490234375	-100.3513717651367	-956.979736328125	810.2938232421875	-92.55783843994141	-1024.06494140625	807.580810546875	-57.2990608215332	-1044.982177734375	1680.57080078125	-314.3173217773438	-852.844970703125	1712.262939453125	-390.1916198730469	-919.035400390625	1713.240844726562	-260.6710815429688	-963.5924072265625	1678.824829101562	-458.5673522949219	-956.7899780273438	927.191650390625	-540.767333984375	-988.1395263671875	974.954345703125	-207.3482208251953	-905.6068725585938	956.8306274414062	-470.3210754394531	-983.9566040039062	488.0651245117188	-463.6140747070312	-961.1141967773438	652.0472412109375	-505.0043640136719	-1075.737548828125	25.77768898010254	-447.8517150878906	-1050.802978515625	244.4576873779297	-470.6198425292969	-887.5269165039062	37.83141326904297	-337.902099609375	-966.3949584960938	42.33475875854492	-321.8511657714844	-954.610595703125	31.22934150695801	-430.4020080566406	-1156.275024414062	31.77781677246094	-412.0601806640625	-1008.672119140625	502.6153869628906	-186.1376953125	-1041.203979492188	792.9807739257812	-159.3228302001953	-1172.59375	53.85646057128906	-221.695068359375	-1026.573364257812	354.8440246582031	-196.07763671875	-952.5039672851562	42.64780807495117	-209.9214324951172	-1004.859069824219	41.72981643676758	-265.1286315917969	-1050.693481445312	45.06000518798828	-172.2910308837891	-1214.00732421875	48.31283187866211	-287.283203125	-1088.523315429688	945.7293701171875	-177.721435546875	-885.2595825195312	710.800048828125	-538.9076538085938	nan	nan	nan	
160	1.59	-1167.962280273438	1017.910705566406	-333.4811706542969	-1122.534301757812	1018.093994140625	-459.2118835449219	-1136.8564453125	1112.207275390625	-400.1803283691406	-907.3424072265625	1291.259887695312	-339.0966491699219	-1143.058349609375	1237.17138671875	-406.0272827148438	-1089.10986328125	1508.307495117188	-384.5437622070312	-921.6712036132812	1403.13720703125	-345.6977844238281	-1187.130004882812	1389.318115234375	-319.9888000488281	-1097.947631835938	1454.84326171875	-481.8807983398438	-980.4658813476562	1476.198364257812	-532.1217651367188	-969.2931518554688	1349.347045898438	-610.463623046875	-944.8632202148438	1125.470092773438	-620.1865844726562	-1043.855590820312	1119.635498046875	-602.1860961914062	-880.482177734375	882.9066772460938	-536.5831909179688	-897.8319091796875	858.9293823242188	-618.8936157226562	-922.8606567382812	1038.647216796875	-616.7581787109375	-894.1808471679688	798.8024291992188	-607.4290161132812	-861.9660034179688	803.9423828125	-548.063720703125	-1077.14013671875	1473.245727539062	-219.9450378417969	-1114.677124023438	1410.57421875	-158.4629821777344	-1125.473754882812	1119.500244140625	-114.4465560913086	-1171.001220703125	1101.626220703125	-154.6441802978516	-981.76025390625	901.9959716796875	-115.6176223754883	-1042.047973632812	880.8162841796875	-63.06673812866211	-1116.977294921875	1064.11376953125	-104.0487442016602	-967.907958984375	727.0451049804688	-99.77902221679688	-956.2347412109375	810.8047485351562	-91.9779052734375	-1023.289001464844	808.0526123046875	-56.9089241027832	-1043.257446289062	1680.68359375	-314.7004699707031	-850.9647827148438	1711.803344726562	-390.2891845703125	-917.3226928710938	1713.068237304688	-260.8567810058594	-961.6130981445312	1678.571533203125	-458.8190612792969	-956.0442504882812	927.000732421875	-540.8472290039062	-987.8946533203125	975.2943115234375	-207.6304321289062	-905.0068359375	956.822265625	-470.4724731445312	-983.5740356445312	488.0359191894531	-463.5789184570312	-960.5570068359375	651.8964233398438	-505.0722961425781	-1075.736083984375	25.78324317932129	-447.8479919433594	-1050.737670898438	244.4766235351562	-470.5744323730469	-887.539794921875	37.8121223449707	-337.8882141113281	-966.3284301757812	42.34663391113281	-321.8992919921875	-954.5977172851562	31.22557067871094	-430.4100341796875	-1156.2744140625	31.78343963623047	-412.0571594238281	-1003.339294433594	503.4925537109375	-184.9576110839844	-1038.992431640625	793.551025390625	-159.2648468017578	-1171.123413085938	55.83881378173828	-221.5663757324219	-1022.201049804688	355.5926818847656	-194.9955139160156	-951.19921875	43.78763580322266	-209.3534393310547	-1003.399780273438	42.87171173095703	-264.6569213867188	-1049.493774414062	46.30041885375977	-171.8446350097656	-1212.353149414062	50.70906066894531	-287.3333129882812	-1088.002685546875	945.8530883789062	-177.9718627929688	-884.5000610351562	710.4070434570312	-539.1751708984375	nan	nan	nan	
